# xmcd
#
# Track frame offsets: 
#        150
#        16737
#        33767
#        46382
#        68807
#        83870
#        113365
#        126715
#        144565
#        161846
#        180491
#
# Disc length: 2510 seconds
#
# Revision: 2
# Processed by: cddbd v1.5.2PL0 Copyright (c) Steve Scherf et al.
# Submitted via: ExactAudioCopy v1.0b3
#
DISCID=8b09cc0b
DTITLE=The Hustlers - The Hustlers
DYEAR=2009
DGENRE=Blues
TTITLE0=Go Big Daddy
TTITLE1=She Caught The Katy
TTITLE2=Jenny Lou
TTITLE3=Moving Up In Class
TTITLE4=Routine
TTITLE5=Back At The Ckicken Shack
TTITLE6=Born To Play The Blues
TTITLE7=Elvis On The Radio
TTITLE8=Littlte Sister
TTITLE9=Mean Ol' Woman
TTITLE10=Bits And Pieces
EXTD=YEAR: 2009
EXTT0=
EXTT1=
EXTT2=
EXTT3=
EXTT4=
EXTT5=
EXTT6=
EXTT7=
EXTT8=
EXTT9=
EXTT10=
PLAYORDER=
